<svg width="16" height="17" viewBox="0 0 16 17" fill="none" xmlns="http://www.w3.org/2000/svg">
<g clip-path="url(#clip0_3789_77330)">
<path d="M6.32314 8.54976L1.49318 4.98888C1.34602 4.88035 1.34602 4.66038 1.49318 4.55188L6.32314 0.990943C6.50236 0.858819 6.75567 0.986786 6.75567 1.20944V8.33123C6.7557 8.55392 6.50239 8.68188 6.32314 8.54976Z" fill="#DCE3E7"/>
<path d="M9.67472 8.45188L14.5047 12.0128C14.6519 12.1213 14.6519 12.3413 14.5047 12.4498L9.67472 16.0107C9.4955 16.1428 9.24219 16.0148 9.24219 15.7922V8.67038C9.24219 8.44772 9.4955 8.31976 9.67472 8.45188Z" fill="#DCE3E7"/>
<path d="M6.48376 9.04195C6.8756 9.04195 7.19438 8.72339 7.19438 8.33186V3.1522H12.0339V6.38978H9.69355V4.39901C9.69355 4.15704 9.4974 3.96092 9.25543 3.96092C9.01346 3.96092 8.81734 4.15707 8.81734 4.39901V6.42934C8.81734 6.89068 9.19265 7.26599 9.65399 7.26599H12.0734C12.5348 7.26599 12.9101 6.89068 12.9101 6.42934V3.11264C12.9101 2.6513 12.5348 2.27599 12.0734 2.27599H7.19435V1.21009C7.19435 0.818561 6.8756 0.5 6.48376 0.5C6.33226 0.5 6.18704 0.548062 6.06376 0.638937L1.23375 4.19985C1.05312 4.33304 0.945312 4.54657 0.945312 4.77098C0.945312 4.99538 1.05312 5.20891 1.23381 5.3421L6.06379 8.90298C6.18701 8.99389 6.33226 9.04195 6.48376 9.04195ZM6.31813 1.53996V8.00199L1.93562 4.77098L6.31813 1.53996Z" fill="white"/>
<path d="M14.7623 11.6608L9.93231 8.09987C9.80906 8.00897 9.66378 7.96094 9.51231 7.96094C9.12047 7.96094 8.80169 8.2795 8.80169 8.67103V13.8507H3.96218V10.6132H6.30251V12.604C6.30251 12.8459 6.49867 13.042 6.74061 13.042C6.98257 13.042 7.1787 12.8459 7.1787 12.604V10.5736C7.1787 10.1123 6.80339 9.73696 6.34205 9.73696H3.92259C3.46125 9.73696 3.08594 10.1123 3.08594 10.5736V13.8903C3.08594 14.3517 3.46125 14.727 3.92259 14.727H8.80166V15.7929C8.80166 16.1844 9.12044 16.503 9.51228 16.503C9.66378 16.503 9.809 16.4549 9.93228 16.364L14.7623 12.8031C14.9429 12.6699 15.0508 12.4564 15.0508 12.232C15.0508 12.0076 14.9429 11.794 14.7623 11.6608ZM9.6779 15.4629V9.0009L14.0604 12.2319L9.6779 15.4629Z" fill="white"/>
</g>
<defs>
<clipPath id="clip0_3789_77330">
<rect width="16" height="16" fill="white" transform="translate(0 0.5)"/>
</clipPath>
</defs>
</svg>
