<svg width="24" height="24" viewBox="0 0 24 24" fill="none" xmlns="http://www.w3.org/2000/svg">
<path d="M9.21207 24C9.13163 24 9.05035 23.9853 8.97212 23.955C8.6979 23.8485 8.52661 23.5739 8.5516 23.2808L9.23232 15.2852H2.24902C2.03114 15.2852 1.82719 15.1782 1.70339 14.9989C1.5796 14.8196 1.55175 14.591 1.62895 14.3873L6.91674 0.428203C7.01438 0.170484 7.26122 0 7.53675 0H18.4391C18.6614 0 18.8688 0.111375 18.9917 0.296625C19.1145 0.481875 19.1364 0.716391 19.0499 0.921047L16.7342 6.4012H21.7444C21.9971 6.4012 22.2278 6.54483 22.3394 6.77152C22.451 6.9982 22.4239 7.26867 22.2698 7.46883L19.9814 10.4401C19.7579 10.7303 19.3416 10.7843 19.0515 10.5609C18.7614 10.3374 18.7073 9.92114 18.9308 9.63103L20.3969 7.72734H15.7342C15.5119 7.72734 15.3045 7.61597 15.1817 7.43072C15.0588 7.24547 15.0369 7.01095 15.1234 6.8063L17.4392 1.32605H7.99468L3.20916 13.9591H9.95419C10.1399 13.9591 10.317 14.037 10.4425 14.1736C10.5681 14.3103 10.6306 14.4934 10.6149 14.6783L10.0644 21.1438L15.7814 13.7205C16.0049 13.4303 16.4212 13.3764 16.7113 13.5997C17.0014 13.8232 17.0554 14.2395 16.832 14.5296L9.73749 23.7415C9.60919 23.9081 9.4134 24 9.21207 24Z" fill="#28536B"/>
<path d="M12.8458 11.9673H6.09375L9.37228 3.3125H14.3942L11.6894 9.71375H16.2557L12.1668 15.842L12.8458 11.9673Z" fill="#DCE3E7"/>
<path d="M12.1656 16.5041C12.0831 16.5041 11.9996 16.4887 11.9192 16.4565C11.6281 16.3399 11.4585 16.0354 11.5126 15.7266L12.0554 12.6294H6.09277C5.87489 12.6294 5.67094 12.5224 5.54714 12.3431C5.42335 12.1638 5.3955 11.9352 5.4727 11.7315L8.75114 3.07664C8.84873 2.81892 9.09558 2.64844 9.3712 2.64844H14.3932C14.6155 2.64844 14.8229 2.75981 14.9457 2.94506C15.0686 3.13031 15.0905 3.36483 15.0039 3.56948L12.6883 9.04964H16.2547C16.4992 9.04964 16.724 9.18431 16.8393 9.39994C16.9546 9.61556 16.9419 9.87726 16.8062 10.0807L12.7172 16.2089C12.5912 16.3979 12.3819 16.5041 12.1656 16.5041ZM7.05281 11.3033H12.8447C13.0405 11.3033 13.2264 11.3899 13.3524 11.5399C13.4783 11.6899 13.5315 11.8879 13.4977 12.0808L13.3625 12.8528L15.0152 10.3758H11.6883C11.466 10.3758 11.2585 10.2644 11.1358 10.0792C11.013 9.8939 10.9911 9.65939 11.0776 9.45473L13.3932 3.97458H9.82908L7.05281 11.3033Z" fill="#28536B"/>
</svg>
