<svg width="24" height="24" viewBox="0 0 24 24" fill="none" xmlns="http://www.w3.org/2000/svg">
<path opacity="0.5" d="M16.7324 11.1785L22.7799 6.76911C22.8965 6.68428 22.9914 6.57304 23.0569 6.4445C23.1223 6.31597 23.1565 6.17375 23.1565 6.02951C23.1565 5.88528 23.1223 5.74313 23.0569 5.6146C22.9914 5.48607 22.8965 5.37482 22.7799 5.28999L16.7324 0.880586C16.5954 0.78043 16.4335 0.720052 16.2644 0.706197C16.0952 0.692341 15.9256 0.725543 15.7742 0.802071C15.6227 0.878598 15.4954 0.995498 15.4063 1.13986C15.3171 1.28423 15.2696 1.45044 15.269 1.62011V2.82129H2.915C2.6389 2.82128 2.36549 2.87566 2.11041 2.98132C1.85532 3.08698 1.62354 3.2418 1.42831 3.43703C1.23307 3.63227 1.0782 3.86405 0.972539 4.11914C0.866878 4.37422 0.8125 4.64767 0.8125 4.92378V7.13525C0.8125 7.41136 0.866878 7.6848 0.972539 7.93989C1.0782 8.19498 1.23307 8.42676 1.42831 8.62199C1.62354 8.81723 1.85532 8.97205 2.11041 9.07771C2.36549 9.18337 2.6389 9.23774 2.915 9.23774H15.269V10.4389C15.2696 10.6086 15.3171 10.7748 15.4062 10.9192C15.4954 11.0635 15.6227 11.1805 15.7742 11.257C15.9256 11.3336 16.0952 11.3667 16.2644 11.3528C16.4335 11.339 16.5954 11.2787 16.7324 11.1785Z" fill="#DCE3E7"/>
<path d="M7.7932 23.9972C7.44751 23.9969 7.11095 23.8863 6.83246 23.6815L0.783962 19.2543C0.577338 19.103 0.409282 18.9052 0.293431 18.6768C0.17758 18.4485 0.117197 18.1961 0.117188 17.94C0.117178 17.684 0.177541 17.4315 0.293376 17.2032C0.409211 16.9748 0.577257 16.777 0.78387 16.6257L6.83251 12.1986C7.07491 12.0201 7.36222 11.9126 7.66226 11.8882C7.96229 11.8637 8.26319 11.9234 8.53126 12.0603C9.08138 12.3394 9.39409 13.5128 9.39409 13.5128V14.0274H21.0397C21.7852 14.0274 22.5001 14.3235 23.0273 14.8507C23.5545 15.3778 23.8506 16.0928 23.8506 16.8383V21.1101C23.8506 21.3024 23.7742 21.487 23.6382 21.623C23.5021 21.759 23.3176 21.8355 23.1253 21.8355H19.2266C19.1787 21.836 19.1326 21.818 19.0978 21.7851C18.4768 21.1806 18.8956 20.4439 19.4864 20.4439H21.065C21.4347 20.4439 21.7893 20.2971 22.0508 20.0356C22.3122 19.7742 22.4591 19.4196 22.4591 19.0498V16.813C22.4591 16.4432 22.3122 16.0886 22.0508 15.8272C21.7893 15.5658 21.4347 15.4189 21.065 15.4189H8.71101C8.52312 15.4189 8.34292 15.3443 8.21006 15.2114C8.0772 15.0786 8.00256 14.8984 8.00256 14.7105V13.5128C8.00256 13.5128 7.9431 13.3508 7.89018 13.3239C7.85566 13.305 7.81633 13.2965 7.77708 13.2997C7.73782 13.3029 7.70038 13.3176 7.66938 13.3419L1.6208 17.7691C1.59394 17.7888 1.5721 17.8145 1.55704 17.8442C1.54198 17.8739 1.53413 17.9067 1.53413 17.94C1.53413 17.9733 1.54198 18.0061 1.55704 18.0358C1.5721 18.0655 1.59394 18.0911 1.6208 18.1108L7.66943 22.5381C7.70041 22.5624 7.73786 22.5771 7.77712 22.5803C7.81638 22.5835 7.85572 22.575 7.89023 22.556C7.92592 22.5397 7.95579 22.5129 7.97586 22.4792C7.99593 22.4455 8.00524 22.4064 8.00256 22.3673V21.1613C8.00515 20.9727 8.08083 20.7926 8.21366 20.6588C8.34648 20.5249 8.52607 20.4479 8.71458 20.4439H16.3449C16.5332 20.4474 16.7127 20.5244 16.845 20.6585C16.9774 20.7925 17.0521 20.9729 17.0533 21.1613C17.0555 21.2534 17.0384 21.3449 17.0032 21.43C16.9679 21.5151 16.9152 21.5919 16.8485 21.6554C16.7817 21.7189 16.7025 21.7677 16.6157 21.7987C16.529 21.8297 16.4367 21.8423 16.3449 21.8355H9.3941V22.3673C9.40683 22.667 9.33202 22.9639 9.17881 23.2219C9.02559 23.4798 8.80059 23.6875 8.53128 23.8197C8.30263 23.9361 8.04976 23.9969 7.7932 23.9972Z" fill="#28536B"/>
<path d="M16.2055 12.0975H16.2055C15.7693 12.0934 15.3526 11.9165 15.0467 11.6056C14.7408 11.2947 14.5707 10.8752 14.5737 10.4391V9.93289H2.92813C2.18262 9.93289 1.46765 9.63673 0.940494 9.10958C0.41334 8.58242 0.117188 7.86744 0.117188 7.12193V4.93572C0.117188 4.19021 0.413341 3.4753 0.940494 2.94815C1.46765 2.42099 2.18262 2.12483 2.92813 2.12483H14.5737V1.62788C14.5747 1.19577 14.747 0.781705 15.053 0.476514C15.3589 0.171323 15.7733 -3.92459e-05 16.2055 6.74209e-09C16.5504 0.000149896 16.8863 0.11073 17.1638 0.315601L23.1815 4.71475C23.3785 4.85514 23.5425 5.03679 23.6621 5.24707C23.7817 5.45736 23.8539 5.69117 23.8739 5.93225C23.8947 6.20718 23.8448 6.48289 23.7288 6.73301C23.6128 6.98314 23.4346 7.19932 23.2113 7.36099L17.1637 11.7818C16.8863 11.9867 16.5504 12.0974 16.2055 12.0975ZM2.90999 3.51636C2.53946 3.5158 2.18383 3.66227 1.92113 3.92359C1.65844 4.1849 1.51012 4.5397 1.50873 4.91023V7.14727C1.50873 7.517 1.6556 7.8716 1.91703 8.13304C2.17847 8.39447 2.53305 8.54136 2.90278 8.54136H15.2848C15.2848 8.54136 15.9933 8.89015 15.9652 9.28133V10.4873C15.9751 10.5454 16.0047 10.5983 16.0491 10.6372C16.0934 10.676 16.1497 10.6985 16.2086 10.7007C16.2526 10.7002 16.2953 10.6853 16.33 10.6582L22.3786 6.23101C22.4054 6.21135 22.4273 6.18562 22.4423 6.15594C22.4574 6.12625 22.4652 6.09342 22.4652 6.06013C22.4652 6.02685 22.4574 5.99402 22.4423 5.96433C22.4273 5.93465 22.4054 5.90892 22.3786 5.88926L16.3299 1.46199C16.2952 1.43486 16.2525 1.41991 16.2084 1.41943C16.1382 1.41943 16.0425 1.63286 16.0425 1.63286V2.80789C16.0425 2.99578 15.9679 3.17601 15.835 3.30886C15.7022 3.44172 15.522 3.51636 15.3341 3.51636H2.90999Z" fill="#28536B"/>
</svg>
