<svg width="16" height="17" viewBox="0 0 16 17" fill="none" xmlns="http://www.w3.org/2000/svg">
<g clipPath="url(#clip0_3789_67909)">
<path d="M13.5309 8.78928L8.31965 15.8578C8.16084 16.0731 7.83887 16.0731 7.68009 15.8578L2.46885 8.78928C2.27547 8.52697 2.46275 8.15625 2.78859 8.15625H13.2111C13.537 8.15625 13.7243 8.52697 13.5309 8.78928Z" fill="#DCE3E7"/>
<path d="M13.9983 8.15814C13.8481 7.86092 13.5479 7.67624 13.2149 7.67624H5.47379V1.56359C5.47379 1.50681 5.51995 1.46065 5.57673 1.46065H10.4306C10.4874 1.46065 10.5335 1.50681 10.5335 1.56359V5.10434C10.5335 5.16112 10.4874 5.20727 10.4306 5.20727H7.45929C7.19401 5.20727 6.97895 5.4223 6.97895 5.68761C6.97895 5.9529 7.19398 6.16796 7.45929 6.16796H10.4306C11.017 6.16796 11.4942 5.6908 11.4942 5.10437V1.56359C11.4942 0.977124 11.0171 0.5 10.4306 0.5H5.57673C4.9903 0.5 4.51314 0.977124 4.51314 1.56359V7.67624H2.79239C2.45936 7.67624 2.1592 7.86086 2.00905 8.15814C1.85889 8.45542 1.88839 8.80658 2.08599 9.07467L7.29726 16.1432C7.46198 16.3666 7.72604 16.5 8.00364 16.5C8.28123 16.5 8.54532 16.3666 8.71001 16.1432L13.9213 9.07461C14.1189 8.80655 14.1484 8.45539 13.9983 8.15814ZM8.00367 15.4824L2.9568 8.63692H13.0505L8.00367 15.4824Z" fill="white"/>
</g>
<defs>
<clipPath id="clip0_3789_67909">
<rect width="16" height="16" fill="white" transform="translate(0 0.5)"/>
</clipPath>
</defs>
</svg>
