<svg width="32" height="24" viewBox="0 0 32 24" fill="none" xmlns="http://www.w3.org/2000/svg">
<path opacity="0.5" d="M15.9984 23.1773L22.3719 16.8038C21.8372 15.5566 20.9484 14.4937 19.8155 13.7467C18.6826 12.9997 17.3554 12.6016 15.9984 12.6016C14.6414 12.6016 13.3142 12.9997 12.1813 13.7467C11.0484 14.4937 10.1596 15.5567 9.625 16.8039L15.9984 23.1773Z" fill="#DCE3E7" stroke="#28536B" stroke-miterlimit="10"/>
<path d="M1.08332 9.08423C0.929608 9.08409 0.778978 9.04106 0.648372 8.96001C0.517765 8.87896 0.41236 8.76312 0.344005 8.62544C0.275649 8.48776 0.247055 8.33375 0.261438 8.18071C0.27582 8.02767 0.332608 7.88166 0.425418 7.75913C2.22016 5.39492 4.52452 3.46544 7.16732 2.11406C9.90417 0.724324 12.9303 1.0947e-05 15.9998 1.24146e-10C19.0693 -1.09468e-05 22.0955 0.72427 24.8323 2.11399C27.4751 3.46547 29.7795 5.395 31.5743 7.7592C31.7064 7.93387 31.7638 8.15383 31.7338 8.37078C31.7038 8.58772 31.5888 8.78389 31.4143 8.91614C31.2397 9.04839 31.0198 9.10587 30.8028 9.07603C30.5858 9.04618 30.3896 8.93145 30.2572 8.75698C28.5927 6.5501 26.4386 4.75976 23.9646 3.5269C21.4905 2.29405 18.7641 1.65234 15.9999 1.65234C13.2356 1.65234 10.5092 2.29405 8.03511 3.5269C5.56105 4.75976 3.40697 6.5501 1.74248 8.75698C1.66542 8.85881 1.56577 8.94138 1.45139 8.99817C1.33701 9.05496 1.21102 9.0844 1.08332 9.08423Z" fill="#28536B"/>
<path d="M15.9977 23.9979C15.8891 23.998 15.7817 23.9768 15.6814 23.9352C15.5812 23.8937 15.4901 23.8327 15.4135 23.7559L3.30448 11.6471C3.16705 11.5097 3.08248 11.3282 3.06562 11.1346C3.04876 10.941 3.10069 10.7476 3.2123 10.5885C4.64939 8.5302 6.5622 6.84929 8.78813 5.68862C11.0141 4.52795 13.4873 3.92188 15.9977 3.92188C18.5081 3.92188 20.9813 4.52795 23.2072 5.68862C25.4332 6.84929 27.346 8.5302 28.7831 10.5885C28.9084 10.7679 28.9575 10.9898 28.9194 11.2053C28.8814 11.4208 28.7594 11.6125 28.5802 11.7381C28.401 11.8638 28.1793 11.9133 27.9637 11.8756C27.748 11.8379 27.5562 11.7162 27.4302 11.5372C26.1791 9.74408 24.5237 8.27041 22.5977 7.23528C20.6718 6.20015 18.5294 5.63257 16.3435 5.57847C14.1577 5.52436 11.9898 5.98528 10.015 6.92385C8.04024 7.86243 6.31394 9.25234 4.97561 10.9814L16.5818 22.5874C16.6974 22.703 16.7761 22.8502 16.8079 23.0105C16.8398 23.1707 16.8235 23.3369 16.7609 23.4879C16.6984 23.6388 16.5925 23.7678 16.4566 23.8586C16.3208 23.9494 16.1611 23.9979 15.9977 23.9979Z" fill="#28536B"/>
<path d="M16.0018 24.0034C15.8933 24.0036 15.7858 23.9823 15.6856 23.9408C15.5853 23.8992 15.4943 23.8383 15.4176 23.7615L6.1404 14.4844C6.00943 14.3534 5.92627 14.1821 5.90428 13.9982C5.88229 13.8143 5.92274 13.6283 6.01914 13.4701C7.04794 11.7848 8.48376 10.3851 10.1947 9.39946C11.962 8.38524 13.9641 7.85156 16.0018 7.85156C18.0394 7.85156 20.0415 8.38524 21.8088 9.39946C23.5198 10.3851 24.9556 11.7848 25.9844 13.4701C26.0808 13.6283 26.1212 13.8143 26.0992 13.9982C26.0773 14.1821 25.9941 14.3534 25.8631 14.4844L16.586 23.7615C16.5094 23.8383 16.4183 23.8992 16.3181 23.9408C16.2178 23.9823 16.1103 24.0036 16.0018 24.0034ZM7.78269 13.79L16.0017 22.0089L24.2208 13.79C23.2971 12.4666 22.0674 11.3859 20.6365 10.6397C19.2055 9.89344 17.6156 9.50376 16.0017 9.50376C14.3879 9.50376 12.7979 9.89344 11.367 10.6397C9.93602 11.3859 8.70642 12.4666 7.78269 13.79Z" fill="#28536B"/>
<path d="M15.9965 24.0016C15.888 24.0017 15.7805 23.9804 15.6803 23.9389C15.58 23.8974 15.489 23.8364 15.4123 23.7596L9.03882 17.3862C8.92205 17.2694 8.84297 17.1203 8.81176 16.9581C8.78055 16.7959 8.79866 16.6281 8.86375 16.4763C9.4621 15.0805 10.4568 13.8909 11.7247 13.055C12.9926 12.219 14.4778 11.7734 15.9965 11.7734C17.5151 11.7734 19.0004 12.219 20.2683 13.055C21.5362 13.8909 22.5309 15.0805 23.1292 16.4763C23.1943 16.6281 23.2124 16.7959 23.1812 16.9581C23.15 17.1203 23.0709 17.2694 22.9542 17.3862L16.5807 23.7596C16.504 23.8364 16.413 23.8974 16.3127 23.9389C16.2125 23.9804 16.105 24.0017 15.9965 24.0016ZM10.6216 16.6323L15.9965 22.0071L21.3714 16.6323C20.848 15.6627 20.0721 14.8528 19.1258 14.2883C18.1796 13.7238 17.0983 13.4258 15.9965 13.4258C14.8947 13.4258 13.8134 13.7238 12.8672 14.2883C11.9209 14.8528 11.145 15.6627 10.6216 16.6323Z" fill="#28536B"/>
</svg>
