<svg width="16" height="24" viewBox="0 0 16 24" fill="none" xmlns="http://www.w3.org/2000/svg">
<g clipPath="url(#clip0_3789_87304)">
<path opacity="0.5" d="M15.0389 3.40079V2.19991C15.0389 1.78636 14.8746 1.38976 14.5822 1.09734C14.2898 0.804912 13.8931 0.640625 13.4796 0.640625H2.52852C2.11391 0.641572 1.71667 0.807177 1.42416 1.10101C1.13165 1.39484 0.967835 1.79283 0.968754 2.20743V3.40079H15.0389Z" fill="#DCE3E7"/>
<path opacity="0.5" d="M0.96875 18.6797V21.7992C0.96875 22.2128 1.13303 22.6094 1.42546 22.9018C1.71788 23.1942 2.11449 23.3585 2.52804 23.3585H13.4796C13.8932 23.3585 14.2898 23.1942 14.5822 22.9018C14.8746 22.6094 15.0389 22.2128 15.0389 21.7993V18.6797H0.96875Z" fill="#DCE3E7"/>
<path opacity="0.5" d="M12.4111 7.03125H9.17969V9.82508H12.4111V7.03125Z" fill="#DCE3E7"/>
<path opacity="0.5" d="M6.82517 12.4531H3.59375V15.247H6.82517V12.4531Z" fill="#DCE3E7"/>
<path d="M13.4923 0H2.53269C1.948 0 1.38726 0.232267 0.973828 0.645703C0.560392 1.05914 0.328125 1.61988 0.328125 2.20456V21.7955C0.328125 22.3802 0.560383 22.9409 0.97381 23.3543C1.38724 23.7677 1.94797 24 2.53264 24H13.4728C14.0575 24 14.6182 23.7677 15.0316 23.3543C15.4451 22.9409 15.6774 22.3801 15.6774 21.7954V16.5219C15.679 16.3539 15.6156 16.1919 15.5006 16.0696C15.3855 15.9473 15.2276 15.8742 15.0599 15.8656C14.9737 15.863 14.8879 15.8777 14.8075 15.909C14.7272 15.9403 14.6539 15.9874 14.5922 16.0476C14.5305 16.1078 14.4815 16.1798 14.4481 16.2593C14.4148 16.3388 14.3979 16.4242 14.3983 16.5105V18.0421H1.60723V4.03926H14.3983V12.0011C14.3966 12.169 14.46 12.3311 14.575 12.4534C14.6901 12.5757 14.848 12.6488 15.0157 12.6574C15.1019 12.66 15.1878 12.6452 15.2681 12.6139C15.3485 12.5826 15.4217 12.5355 15.4835 12.4752C15.5452 12.415 15.5942 12.343 15.6275 12.2635C15.6608 12.1839 15.6778 12.0985 15.6774 12.0122V2.20553C15.6794 1.62351 15.4505 1.06443 15.0409 0.650958C14.6313 0.237485 14.0744 0.00338159 13.4923 0ZM14.3983 19.3212V21.8069C14.3983 21.927 14.3746 22.0458 14.3287 22.1567C14.2827 22.2676 14.2154 22.3683 14.1306 22.4532C14.0457 22.5381 13.9449 22.6054 13.834 22.6513C13.7232 22.6973 13.6043 22.7209 13.4843 22.7209H2.5212C2.40117 22.7209 2.28233 22.6973 2.17144 22.6513C2.06055 22.6054 1.95979 22.5381 1.87492 22.4532C1.79005 22.3683 1.72273 22.2676 1.6768 22.1567C1.63087 22.0458 1.60723 21.927 1.60723 21.8069V19.3212H14.3983ZM1.60723 2.7265V2.19306C1.60723 1.95066 1.70352 1.7182 1.87492 1.54679C2.04632 1.37539 2.2788 1.27909 2.5212 1.27909H13.4842C13.6043 1.27909 13.7231 1.30274 13.834 1.34867C13.9449 1.39461 14.0457 1.46193 14.1305 1.5468C14.2154 1.63168 14.2827 1.73244 14.3287 1.84333C14.3746 1.95423 14.3983 2.07308 14.3983 2.19311V2.7265L1.60723 2.7265Z" fill="#28536B"/>
<path d="M8.00342 21.46C8.24694 21.46 8.44434 21.2626 8.44434 21.019C8.44434 20.7755 8.24694 20.5781 8.00342 20.5781C7.75991 20.5781 7.5625 20.7755 7.5625 21.019C7.5625 21.2626 7.75991 21.46 8.00342 21.46Z" fill="#28536B"/>
<path d="M8.00807 22.1021C7.79324 22.1021 7.58324 22.0384 7.40462 21.919C7.22599 21.7997 7.08677 21.63 7.00456 21.4316C6.92235 21.2331 6.90084 21.0147 6.94275 20.804C6.98466 20.5933 7.08811 20.3997 7.24002 20.2478C7.39192 20.0959 7.58546 19.9925 7.79616 19.9506C8.00687 19.9086 8.22526 19.9302 8.42374 20.0124C8.62222 20.0946 8.79185 20.2338 8.91121 20.4124C9.03056 20.591 9.09427 20.8011 9.09427 21.0159C9.09393 21.3039 8.97939 21.5799 8.77576 21.7836C8.57213 21.9872 8.29605 22.1018 8.00807 22.1021ZM8.00807 20.8115C7.96766 20.8115 7.92814 20.8235 7.89454 20.8459C7.86093 20.8684 7.83474 20.9003 7.81927 20.9376C7.8038 20.975 7.79976 21.0161 7.80764 21.0557C7.81553 21.0953 7.83499 21.1317 7.86357 21.1603C7.89215 21.1889 7.92856 21.2084 7.9682 21.2163C8.00784 21.2241 8.04893 21.2201 8.08627 21.2046C8.12361 21.1892 8.15553 21.163 8.17798 21.1294C8.20043 21.0957 8.21242 21.0562 8.21242 21.0158C8.21235 20.9617 8.1908 20.9097 8.1525 20.8714C8.11419 20.8331 8.06225 20.8116 8.00807 20.8115Z" fill="#28536B"/>
<path d="M6.79043 10.4714H3.59416C3.42415 10.4714 3.2611 10.4039 3.14088 10.2836C3.02066 10.1634 2.95312 10.0004 2.95312 9.83036V7.04373C2.95312 6.87259 3.02111 6.70847 3.14212 6.58746C3.26313 6.46645 3.42726 6.39847 3.59839 6.39847H6.77367C6.9416 6.39685 7.10365 6.46025 7.2259 6.57538C7.34816 6.69052 7.42116 6.84847 7.42962 7.0162C7.43254 7.10197 7.41817 7.18746 7.38737 7.26756C7.35656 7.34766 7.30995 7.42075 7.2503 7.48246C7.19066 7.54417 7.11921 7.59325 7.0402 7.62677C6.9612 7.66029 6.87625 7.67757 6.79043 7.67757H4.23223V9.19229H6.77367C6.9416 9.19068 7.10365 9.25407 7.22591 9.36921C7.34817 9.48434 7.42116 9.6423 7.42962 9.81002C7.43255 9.8958 7.41818 9.98129 7.38737 10.0614C7.35657 10.1415 7.30996 10.2146 7.25031 10.2763C7.19067 10.338 7.11922 10.3871 7.04021 10.4206C6.9612 10.4541 6.87625 10.4714 6.79043 10.4714Z" fill="#28536B"/>
<path d="M12.4043 10.4714H9.18434C9.0132 10.4714 8.84907 10.4034 8.72806 10.2824C8.60705 10.1614 8.53906 9.99723 8.53906 9.82609V7.0437C8.53906 6.87257 8.60705 6.70844 8.72806 6.58743C8.84907 6.46642 9.0132 6.39844 9.18434 6.39844H12.4043C12.5754 6.39844 12.7396 6.46642 12.8606 6.58743C12.9816 6.70844 13.0496 6.87257 13.0496 7.0437V9.82609C13.0496 9.99723 12.9816 10.1614 12.8606 10.2824C12.7396 10.4034 12.5754 10.4714 12.4043 10.4714ZM9.81817 9.19226H11.7705V7.67754H9.81817V9.19226Z" fill="#28536B"/>
<path d="M6.81837 15.8854H3.59839C3.51365 15.8854 3.42975 15.8687 3.35146 15.8363C3.27317 15.8039 3.20204 15.7564 3.14212 15.6964C3.0822 15.6365 3.03467 15.5654 3.00224 15.4871C2.96982 15.4088 2.95312 15.3249 2.95313 15.2402V12.4578C2.95313 12.2866 3.02111 12.1225 3.14212 12.0015C3.26313 11.8805 3.42726 11.8125 3.59839 11.8125H6.81837C6.98951 11.8125 7.15364 11.8805 7.27465 12.0015C7.39566 12.1225 7.46364 12.2866 7.46364 12.4578V15.2402C7.46364 15.3249 7.44695 15.4088 7.41453 15.4871C7.3821 15.5654 7.33457 15.6365 7.27465 15.6964C7.21473 15.7564 7.1436 15.8039 7.06531 15.8363C6.98702 15.8687 6.90311 15.8854 6.81837 15.8854ZM4.23223 14.6063H6.18454V13.0916H4.23223V14.6063Z" fill="#28536B"/>
<path d="M12.4097 15.8854H9.23446C9.06655 15.8871 8.90451 15.8237 8.78226 15.7086C8.66 15.5935 8.58699 15.4355 8.5785 15.2678C8.57556 15.1821 8.58992 15.0966 8.62072 15.0164C8.65151 14.9363 8.69812 14.8632 8.75777 14.8015C8.81741 14.7398 8.88887 14.6907 8.96788 14.6572C9.0469 14.6236 9.13185 14.6063 9.21769 14.6063H11.7759V13.0916H9.23445C9.06652 13.0932 8.90446 13.0298 8.78221 12.9147C8.65995 12.7996 8.58695 12.6416 8.5785 12.4739C8.57557 12.3881 8.58994 12.3026 8.62075 12.2225C8.65155 12.1424 8.69816 12.0693 8.75781 12.0076C8.81745 11.9459 8.8889 11.8968 8.96791 11.8633C9.04692 11.8298 9.13186 11.8125 9.21769 11.8125H12.414C12.4981 11.8125 12.5815 11.8291 12.6593 11.8613C12.737 11.8935 12.8077 11.9407 12.8672 12.0003C12.9268 12.0598 12.974 12.1305 13.0062 12.2082C13.0384 12.286 13.055 12.3694 13.055 12.4535V15.2402C13.055 15.3249 13.0383 15.4088 13.0059 15.4871C12.9735 15.5654 12.9259 15.6365 12.866 15.6964C12.8061 15.7564 12.7349 15.8039 12.6567 15.8363C12.5784 15.8688 12.4945 15.8854 12.4097 15.8854Z" fill="#28536B"/>
</g>
<defs>
<clipPath id="clip0_3789_87304">
<rect width="15.3492" height="24" fill="white" transform="translate(0.328125)"/>
</clipPath>
</defs>
</svg>
