<svg width="16" height="17" viewBox="0 0 16 17" fill="none" xmlns="http://www.w3.org/2000/svg">
<g clipPath="url(#clip0_3789_77312)">
<path d="M13.5309 8.21072L8.31965 1.14223C8.16084 0.926859 7.83887 0.926859 7.68009 1.14223L2.46885 8.21072C2.27547 8.47303 2.46275 8.84375 2.78859 8.84375H13.2111C13.537 8.84375 13.7243 8.47303 13.5309 8.21072Z" fill="#DCE3E7"/>
<path d="M13.9983 8.84186C13.8481 9.13908 13.5479 9.32376 13.2149 9.32376H5.47379V15.4364C5.47379 15.4932 5.51995 15.5393 5.57673 15.5393H10.4306C10.4874 15.5393 10.5335 15.4932 10.5335 15.4364V11.8957C10.5335 11.8389 10.4874 11.7927 10.4306 11.7927H7.45929C7.19401 11.7927 6.97895 11.5777 6.97895 11.3124C6.97895 11.0471 7.19398 10.832 7.45929 10.832H10.4306C11.017 10.832 11.4942 11.3092 11.4942 11.8956V15.4364C11.4942 16.0229 11.0171 16.5 10.4306 16.5H5.57673C4.9903 16.5 4.51314 16.0229 4.51314 15.4364V9.32376H2.79239C2.45936 9.32376 2.1592 9.13914 2.00905 8.84186C1.85889 8.54458 1.88839 8.19342 2.08599 7.92533L7.29726 0.856842C7.46198 0.633406 7.72604 0.5 8.00364 0.5C8.28123 0.5 8.54532 0.633374 8.71001 0.856842L13.9213 7.92539C14.1189 8.19345 14.1484 8.54461 13.9983 8.84186ZM8.00367 1.51756L2.9568 8.36308H13.0505L8.00367 1.51756Z" fill="white"/>
</g>
<defs>
<clipPath id="clip0_3789_77312">
<rect width="16" height="16" fill="white" transform="matrix(1 0 0 -1 0 16.5)"/>
</clipPath>
</defs>
</svg>
